<svg version="1.1"
    width="300" height="300"
    xmlns="http://www.w3.org/2000/svg">
    <!-- my comments - these element names rect, circle and text all seem 
        independent of each other -->
    <rect x="10" y="10" width="30" height="30" stroke="black" stroke-width="10" fill="transparent"/>
    <!-- <circle cx="150" cy="100" r="80" fill="cyan"/> -->
    <line x1="10" x2="50" y1="110" y2="150" stroke="orange" stroke-width="5"/>
    <polyline points="60 110 65 120 70 115 75 130 80 125 85 140 90 135 95 150 100 145"
      stroke="orange" fill="transparent" stroke-width="5"/>

      <polygon points="50 160 55 180 70 180 60 190 65 205 50 195 35 205 40 190 30 180 45 180"
      stroke="green" fill="transparent" stroke-width="5"/>

  <!-- <path d="M20,230 Q40,205 50,230 T90,230" fill="none" stroke="blue" stroke-width="5"/> -->

    <text x="150" y="150" fill="#ef6e1dff" stroke="#370eedff" text-anchor="middle" font-size="60">this is stuff</text>
</svg>

