<svg width="520" height="870" viewBox="0 0 520 870"
     xmlns="http://www.w3.org/2000/svg"
     xmlns:xlink="http://www.w3.org/1999/xlink"
     role="img"
     aria-labelledby="pageTitle pageDesc"
     preserveAspectRatio="xMidYMid meet">

  <title id="pageTitle">Grid gallery — 2 by 3</title>
  <desc id="pageDesc">Six identical copies of a small grid arranged two columns by three rows, created with a reusable SVG symbol and placed using &lt;use&gt;.</desc>

  <style>
    .bg { fill:#ffffff; }
    .grid-line { stroke:#000; stroke-width:1; stroke-linecap:square; }
    .grid { shape-rendering:crispEdges; }
  </style>

  <!-- Define grid once; give the symbol an explicit size -->
  <symbol id="grid-template" viewBox="0 0 240 270" width="240" height="270" preserveAspectRatio="xMidYMid meet">
    <rect class="bg" x="0" y="0" width="240" height="270" />
    <g class="grid" aria-hidden="true">
      <line class="grid-line" x1="20"  y1="70" x2="20"  y2="270"/>
      <line class="grid-line" x1="60"  y1="70" x2="60"  y2="270"/>
      <line class="grid-line" x1="100" y1="70" x2="100" y2="270"/>
      <line class="grid-line" x1="140" y1="70" x2="140" y2="270"/>
      <line class="grid-line" x1="180" y1="70" x2="180" y2="270"/>
      <line class="grid-line" x1="220" y1="70" x2="220" y2="270"/>
      <line class="grid-line" x1="20"  y1="70"  x2="220" y2="70" />
      <line class="grid-line" x1="20"  y1="110" x2="220" y2="110"/>
      <line class="grid-line" x1="20"  y1="150" x2="220" y2="150"/>
      <line class="grid-line" x1="20"  y1="190" x2="220" y2="190"/>
      <line class="grid-line" x1="20"  y1="230" x2="220" y2="230"/>
      <line class="grid-line" x1="20"  y1="270" x2="220" y2="270"/>
    </g>
  </symbol>

  <!-- Place six copies explicitly; width/height on each <use> prevents inconsistent rendering -->
  <g id="gallery">
    <use href="#grid-template" x="0"   y="0"   width="240" height="270" />
    <use href="#grid-template" x="260" y="0"   width="240" height="270" />

    <use href="#grid-template" x="0"   y="290" width="240" height="270" />
    <use href="#grid-template" x="260" y="290" width="240" height="270" />

    <use href="#grid-template" x="0"   y="580" width="240" height="270" />
    <use href="#grid-template" x="260" y="580" width="240" height="270" />
  </g>

</svg>

